<svg width="227" height="122" viewBox="0 0 227 122" fill="none" xmlns="http://www.w3.org/2000/svg">
<path d="M32.008 35.552L55.432 95.936C56.392 98.368 57.48 100 58.696 100.832C59.912 101.6 61.032 102.016 62.056 102.08V104C60.776 103.872 59.208 103.808 57.352 103.808C55.496 103.744 53.64 103.712 51.784 103.712C49.288 103.712 46.952 103.744 44.776 103.808C42.6 103.808 40.84 103.872 39.496 104V102.08C42.76 101.952 44.84 101.408 45.736 100.448C46.632 99.424 46.44 97.28 45.16 94.016L27.304 46.304L28.84 45.056L12.136 88.448C11.112 91.008 10.504 93.184 10.312 94.976C10.12 96.704 10.28 98.08 10.792 99.104C11.368 100.128 12.296 100.864 13.576 101.312C14.92 101.76 16.584 102.016 18.568 102.08V104C16.776 103.872 14.888 103.808 12.904 103.808C10.984 103.744 9.192 103.712 7.528 103.712C5.928 103.712 4.552 103.744 3.4 103.808C2.312 103.808 1.288 103.872 0.328 104V102.08C1.608 101.76 2.92 101.024 4.264 99.872C5.608 98.656 6.824 96.608 7.912 93.728L30.472 35.552C30.728 35.552 30.984 35.552 31.24 35.552C31.496 35.552 31.752 35.552 32.008 35.552ZM43.72 76.352V78.272H15.112L16.072 76.352H43.72Z" fill="black"/>
<rect x="1" y="68" width="88" height="18" fill="#c7c7c7"/>
<path d="M6.49 72.35C6.74 72.35 6.945 72.4 7.105 72.5C7.275 72.59 7.415 72.715 7.525 72.875C7.635 73.025 7.725 73.2 7.795 73.4C7.865 73.6 7.925 73.805 7.975 74.015C8.375 75.635 8.705 76.97 8.965 78.02C9.225 79.07 9.43 79.92 9.58 80.57C9.73 81.21 9.835 81.685 9.895 81.995C9.955 82.305 9.985 82.52 9.985 82.64C9.985 82.78 9.95 82.875 9.88 82.925C9.82 82.975 9.72 83 9.58 83H8.815C8.385 83 8.04 82.95 7.78 82.85C7.53 82.74 7.335 82.585 7.195 82.385C7.065 82.185 6.97 81.945 6.91 81.665C6.85 81.375 6.8 81.05 6.76 80.69H4.15L3.655 82.76C3.605 82.92 3.49 83 3.31 83H2.515C2.355 83 2.19 82.985 2.02 82.955C1.85 82.915 1.695 82.855 1.555 82.775C1.425 82.695 1.315 82.595 1.225 82.475C1.135 82.345 1.09 82.19 1.09 82.01C1.09 81.79 1.16 81.43 1.3 80.93C1.44 80.43 1.615 79.865 1.825 79.235C2.045 78.595 2.285 77.93 2.545 77.24C2.815 76.54 3.075 75.88 3.325 75.26C3.575 74.64 3.8 74.095 4 73.625C4.21 73.155 4.37 72.825 4.48 72.635C4.56 72.495 4.63 72.415 4.69 72.395C4.76 72.365 4.885 72.35 5.065 72.35H6.49ZM4.69 78.515H6.415L5.785 74.555L4.69 78.515ZM18.3871 83C17.8271 83 17.4271 82.89 17.1871 82.67C16.9471 82.45 16.8271 82.135 16.8271 81.725C16.8271 81.525 16.8421 81.185 16.8721 80.705C16.9021 80.215 16.9421 79.66 16.9921 79.04C17.0421 78.42 17.0921 77.765 17.1421 77.075C17.1921 76.385 17.2421 75.735 17.2921 75.125C17.3421 74.515 17.3821 73.98 17.4121 73.52C17.4421 73.06 17.4571 72.745 17.4571 72.575C17.4571 72.425 17.5371 72.35 17.6971 72.35H18.5221C19.0821 72.35 19.4671 72.46 19.6771 72.68C19.8971 72.89 20.0071 73.205 20.0071 73.625C20.0071 73.675 20.0021 73.72 19.9921 73.76C19.9921 73.8 19.9921 73.845 19.9921 73.895L19.4971 80.9H22.1971C22.2571 80.9 22.3121 80.92 22.3621 80.96C22.4121 80.99 22.4371 81.04 22.4371 81.11L22.3771 81.995C22.3571 82.295 22.2721 82.54 22.1221 82.73C21.9821 82.91 21.6871 83 21.2371 83H18.3871ZM30.8857 83C30.3257 83 29.9257 82.89 29.6857 82.67C29.4457 82.45 29.3257 82.135 29.3257 81.725C29.3257 81.525 29.3407 81.185 29.3707 80.705C29.4007 80.215 29.4407 79.66 29.4907 79.04C29.5407 78.42 29.5907 77.765 29.6407 77.075C29.6907 76.385 29.7407 75.735 29.7907 75.125C29.8407 74.515 29.8807 73.98 29.9107 73.52C29.9407 73.06 29.9557 72.745 29.9557 72.575C29.9557 72.425 30.0357 72.35 30.1957 72.35H31.0207C31.5807 72.35 31.9657 72.46 32.1757 72.68C32.3957 72.89 32.5057 73.205 32.5057 73.625C32.5057 73.675 32.5007 73.72 32.4907 73.76C32.4907 73.8 32.4907 73.845 32.4907 73.895L31.9957 80.9H34.6957C34.7557 80.9 34.8107 80.92 34.8607 80.96C34.9107 80.99 34.9357 81.04 34.9357 81.11L34.8757 81.995C34.8557 82.295 34.7707 82.54 34.6207 82.73C34.4807 82.91 34.1857 83 33.7357 83H30.8857ZM46.5494 72.35C46.7994 72.35 47.0044 72.4 47.1644 72.5C47.3344 72.59 47.4744 72.715 47.5844 72.875C47.6944 73.025 47.7844 73.2 47.8544 73.4C47.9244 73.6 47.9844 73.805 48.0344 74.015C48.4344 75.635 48.7644 76.97 49.0244 78.02C49.2844 79.07 49.4894 79.92 49.6394 80.57C49.7894 81.21 49.8944 81.685 49.9544 81.995C50.0144 82.305 50.0444 82.52 50.0444 82.64C50.0444 82.78 50.0094 82.875 49.9394 82.925C49.8794 82.975 49.7794 83 49.6394 83H48.8744C48.4444 83 48.0994 82.95 47.8394 82.85C47.5894 82.74 47.3944 82.585 47.2544 82.385C47.1244 82.185 47.0294 81.945 46.9694 81.665C46.9094 81.375 46.8594 81.05 46.8194 80.69H44.2094L43.7144 82.76C43.6644 82.92 43.5494 83 43.3694 83H42.5744C42.4144 83 42.2494 82.985 42.0794 82.955C41.9094 82.915 41.7544 82.855 41.6144 82.775C41.4844 82.695 41.3744 82.595 41.2844 82.475C41.1944 82.345 41.1494 82.19 41.1494 82.01C41.1494 81.79 41.2194 81.43 41.3594 80.93C41.4994 80.43 41.6744 79.865 41.8844 79.235C42.1044 78.595 42.3444 77.93 42.6044 77.24C42.8744 76.54 43.1344 75.88 43.3844 75.26C43.6344 74.64 43.8594 74.095 44.0594 73.625C44.2694 73.155 44.4294 72.825 44.5394 72.635C44.6194 72.495 44.6894 72.415 44.7494 72.395C44.8194 72.365 44.9444 72.35 45.1244 72.35H46.5494ZM44.7494 78.515H46.4744L45.8444 74.555L44.7494 78.515ZM63.6065 83C63.1965 83 62.8915 82.94 62.6915 82.82C62.4915 82.7 62.3465 82.55 62.2565 82.37C61.7365 81.3 61.2465 80.275 60.7865 79.295C60.3365 78.315 59.8765 77.325 59.4065 76.325C59.4165 77.405 59.4315 78.48 59.4515 79.55C59.4715 80.62 59.4915 81.695 59.5115 82.775C59.5115 82.925 59.4315 83 59.2715 83H58.4465C57.8765 83 57.4715 82.89 57.2315 82.67C57.0015 82.44 56.8865 82.105 56.8865 81.665C56.8865 81.545 56.8915 81.345 56.9015 81.065C56.9215 80.775 56.9465 80.435 56.9765 80.045C57.0065 79.655 57.0365 79.23 57.0665 78.77C57.1065 78.3 57.1465 77.825 57.1865 77.345C57.2465 76.585 57.2965 75.955 57.3365 75.455C57.3765 74.955 57.4065 74.535 57.4265 74.195C57.4565 73.845 57.4765 73.55 57.4865 73.31C57.4965 73.06 57.5065 72.815 57.5165 72.575C57.5165 72.425 57.5965 72.35 57.7565 72.35H58.9565C59.2865 72.35 59.5565 72.39 59.7665 72.47C59.9765 72.54 60.1465 72.64 60.2765 72.77C60.4165 72.9 60.5265 73.05 60.6065 73.22C60.6865 73.38 60.7615 73.55 60.8315 73.73C61.0715 74.35 61.2815 74.885 61.4615 75.335C61.6515 75.785 61.8165 76.18 61.9565 76.52C62.0965 76.86 62.2165 77.155 62.3165 77.405C62.4265 77.655 62.5265 77.885 62.6165 78.095C62.7065 78.305 62.7965 78.51 62.8865 78.71C62.9765 78.9 63.0715 79.11 63.1715 79.34C63.1715 78.75 63.1665 78.145 63.1565 77.525C63.1565 76.895 63.1515 76.285 63.1415 75.695C63.1415 75.095 63.1365 74.52 63.1265 73.97C63.1265 73.42 63.1265 72.925 63.1265 72.485C63.1265 72.395 63.2115 72.35 63.3815 72.35H64.2065C64.5365 72.35 64.7965 72.385 64.9865 72.455C65.1865 72.515 65.3415 72.61 65.4515 72.74C65.5615 72.86 65.6315 73.01 65.6615 73.19C65.7015 73.37 65.7215 73.575 65.7215 73.805C65.7215 74.055 65.7065 74.44 65.6765 74.96C65.6465 75.47 65.6115 76.045 65.5715 76.685C65.5315 77.325 65.4865 77.99 65.4365 78.68C65.3865 79.36 65.3365 79.99 65.2865 80.57C65.2465 81.15 65.2065 81.645 65.1665 82.055C65.1365 82.455 65.1165 82.69 65.1065 82.76C65.1065 82.84 65.0765 82.9 65.0165 82.94C64.9665 82.98 64.9065 83 64.8365 83H63.6065Z" fill="black"/>
</svg>
