<svg width="139" height="185" viewBox="0 0 139 185" fill="none" xmlns="http://www.w3.org/2000/svg">
<rect width="139" height="185" fill="white"/>
<path d="M42.5 33L58.843 33.0056L69.5257 53.1522L80.1711 33.0085L96.5 33.0038L69.6077 86L42.5 33Z" fill="#35495E"/>
<path d="M25.5 33.137L42.9821 33L69.589 85.8466L95.9878 33.0028L113.5 33.0244L69.5858 120L25.5 33.137Z" fill="#41B883"/>
<path d="M51.9156 162C51.713 162 51.4196 161.915 51.0356 161.744C50.6516 161.563 50.2943 161.355 49.9636 161.12C49.6436 160.875 49.4623 160.667 49.4196 160.496C49.3663 160.261 49.2703 159.28 49.1316 157.552C49.089 156.859 49.0516 156.352 49.0196 156.032C48.9983 155.755 48.977 155.547 48.9556 155.408C48.817 153.979 48.7476 152.944 48.7476 152.304C48.7476 151.589 48.8276 151.211 48.9876 151.168C49.0303 151.157 49.0996 151.152 49.1956 151.152C49.4303 151.152 49.7183 151.211 50.0596 151.328C50.4116 151.435 50.721 151.573 50.9876 151.744C51.2543 151.915 51.409 152.08 51.4516 152.24C51.473 152.304 51.4836 152.544 51.4836 152.96C51.4836 153.547 51.4676 154.267 51.4356 155.12C51.393 156.507 51.3716 157.579 51.3716 158.336V158.912C52.2783 156.928 53.2916 154.267 54.4116 150.928C54.7316 150.821 55.057 150.768 55.3876 150.768C55.825 150.768 56.193 150.885 56.4916 151.12C56.801 151.355 57.0036 151.712 57.0996 152.192C54.1023 158.731 52.3743 162 51.9156 162ZM59.1221 162C58.8448 162 58.5408 161.899 58.2101 161.696C57.8901 161.483 57.6181 161.243 57.3941 160.976C57.1701 160.699 57.0581 160.475 57.0581 160.304C57.0581 160.133 57.1061 159.888 57.2021 159.568C57.3088 159.248 57.4155 158.928 57.5221 158.608C57.6395 158.288 57.7141 158.085 57.7461 158C57.8848 157.627 58.0075 157.275 58.1141 156.944C58.2315 156.613 58.2901 156.389 58.2901 156.272C58.2901 156.187 58.2368 156.096 58.1301 156C58.0341 155.893 57.8848 155.765 57.6821 155.616C57.4475 155.435 57.2715 155.291 57.1541 155.184C57.0475 155.077 56.9941 154.965 56.9941 154.848C56.9941 154.624 57.0955 154.363 57.2981 154.064C57.5115 153.765 57.7568 153.509 58.0341 153.296C58.3221 153.083 58.5675 152.976 58.7701 152.976C58.9941 152.976 59.2501 153.077 59.5381 153.28C59.8368 153.483 60.0928 153.717 60.3061 153.984C60.5301 154.24 60.6421 154.437 60.6421 154.576C60.6421 155.237 60.5301 156.032 60.3061 156.96C60.0821 157.888 59.7941 158.811 59.4421 159.728C60.1461 159.141 60.7755 158.491 61.3301 157.776C61.8848 157.061 62.2741 156.421 62.4981 155.856C62.5195 155.163 62.5995 154.581 62.7381 154.112C62.8875 153.643 63.0581 153.408 63.2501 153.408C63.5275 153.408 63.8315 153.509 64.1621 153.712C64.5035 153.904 64.7915 154.133 65.0261 154.4C65.2608 154.656 65.3781 154.859 65.3781 155.008C65.3675 155.232 65.2661 155.653 65.0741 156.272C64.8821 156.88 64.6155 157.664 64.2741 158.624C64.0715 159.221 63.9541 159.563 63.9221 159.648C64.2315 159.509 64.5088 159.365 64.7541 159.216C65.0101 159.056 65.2768 158.859 65.5541 158.624C66.0235 158.784 66.3701 159.008 66.5941 159.296C66.8288 159.573 66.9461 159.893 66.9461 160.256C66.9461 160.512 66.7648 160.779 66.4021 161.056C66.0395 161.323 65.6075 161.547 65.1061 161.728C64.6048 161.909 64.1781 162 63.8261 162C63.6021 162 63.3355 161.909 63.0261 161.728C62.7168 161.536 62.4395 161.323 62.1941 161.088C61.9595 160.843 61.8421 160.661 61.8421 160.544C61.8421 160.427 61.8795 160.283 61.9541 160.112C62.0395 159.941 62.1301 159.76 62.2261 159.568C62.3328 159.365 62.4128 159.221 62.4661 159.136L62.0661 158.912C61.4795 159.989 60.9728 160.773 60.5461 161.264C60.1301 161.755 59.6555 162 59.1221 162ZM71.1811 162C70.6691 162 70.1358 161.835 69.5811 161.504C69.0265 161.163 68.5678 160.747 68.2051 160.256C67.8425 159.765 67.6611 159.301 67.6611 158.864C67.6611 158.085 67.8425 157.232 68.2051 156.304C68.5785 155.376 69.0905 154.592 69.7411 153.952C70.3918 153.301 71.1278 152.976 71.9491 152.976C72.5358 152.976 73.0638 153.104 73.5331 153.36C74.0131 153.616 74.3865 153.936 74.6531 154.32C74.9198 154.704 75.0531 155.077 75.0531 155.44C75.0531 155.888 74.8505 156.331 74.4451 156.768C74.0398 157.195 73.4745 157.573 72.7491 157.904C72.0238 158.224 71.1971 158.453 70.2691 158.592C70.2585 158.72 70.2531 158.912 70.2531 159.168C70.2531 159.488 70.2638 159.728 70.2851 159.888C70.8185 159.835 71.3465 159.691 71.8691 159.456C72.3918 159.221 72.9625 158.891 73.5811 158.464C73.9971 158.592 74.3118 158.795 74.5251 159.072C74.7385 159.349 74.8451 159.68 74.8451 160.064C74.8451 160.384 74.6478 160.699 74.2531 161.008C73.8691 161.307 73.3891 161.547 72.8131 161.728C72.2371 161.909 71.6931 162 71.1811 162ZM70.5091 157.392C71.1598 157.157 71.7038 156.859 72.1411 156.496C72.5785 156.133 72.7971 155.824 72.7971 155.568C72.7971 155.269 72.5891 155.067 72.1731 154.96C71.7678 155.259 71.4211 155.616 71.1331 156.032C70.8558 156.448 70.6478 156.901 70.5091 157.392ZM81.9096 150.8C82.0803 150.8 82.315 150.896 82.6136 151.088C82.9123 151.28 83.179 151.504 83.4136 151.76C83.6483 152.016 83.7656 152.219 83.7656 152.368C83.755 152.645 83.5736 153.493 83.2216 154.912L82.8856 156.352L82.7256 157.168C82.5336 158.139 82.3736 158.896 82.2456 159.44C82.1283 159.984 82.0163 160.347 81.9096 160.528C81.7816 160.752 81.547 160.981 81.2056 161.216C80.8643 161.44 80.4803 161.627 80.0536 161.776C79.6376 161.925 79.243 162 78.8696 162C78.4856 162 78.0323 161.84 77.5096 161.52C76.9976 161.189 76.555 160.768 76.1816 160.256C75.819 159.744 75.6376 159.221 75.6376 158.688C75.6376 158.187 75.803 157.792 76.1336 157.504C76.475 157.205 76.8643 157.056 77.3016 157.056C77.6963 157.056 78.0216 157.163 78.2776 157.376C78.267 157.483 78.2616 157.637 78.2616 157.84C78.2616 158.224 78.299 158.592 78.3736 158.944C78.4483 159.285 78.5496 159.557 78.6776 159.76C78.8056 159.963 78.9336 160.064 79.0616 160.064C79.3283 160.064 79.5843 159.712 79.8296 159.008C80.0856 158.293 80.3096 157.408 80.5016 156.352C80.5763 155.947 80.667 155.493 80.7736 154.992C80.955 154.139 81.067 153.52 81.1096 153.136C80.6403 153.2 80.2616 153.243 79.9736 153.264C79.8563 153.275 79.611 153.301 79.2376 153.344C78.8643 153.376 78.5283 153.424 78.2296 153.488C77.995 153.381 77.8083 153.216 77.6696 152.992C77.5416 152.757 77.4776 152.501 77.4776 152.224C77.4776 151.861 77.5843 151.536 77.7976 151.248C78.427 151.088 79.115 150.976 79.8616 150.912C80.619 150.837 81.3016 150.8 81.9096 150.8ZM88.3834 154.88C87.9034 155.243 87.514 155.6 87.2154 155.952C86.9274 156.304 86.7834 156.603 86.7834 156.848C86.7834 156.965 86.8847 157.088 87.0874 157.216C87.29 157.333 87.626 157.499 88.0954 157.712C88.842 158.053 89.4287 158.373 89.8554 158.672C90.282 158.96 90.4954 159.296 90.4954 159.68C90.4954 160.064 90.2767 160.437 89.8394 160.8C89.4127 161.152 88.8794 161.44 88.2394 161.664C87.5994 161.888 87.002 162 86.4474 162C86.0314 162 85.594 161.915 85.1354 161.744C84.6767 161.563 84.2927 161.339 83.9834 161.072C83.674 160.795 83.5194 160.533 83.5194 160.288C83.5194 159.851 83.658 159.504 83.9354 159.248C84.2234 158.981 84.5967 158.848 85.0554 158.848C85.2687 158.848 85.4874 158.88 85.7114 158.944C85.8927 159.52 86.0474 159.931 86.1754 160.176C86.826 160.005 87.4074 159.717 87.9194 159.312C87.0234 158.928 86.202 158.496 85.4554 158.016C84.7194 157.536 84.3514 157.088 84.3514 156.672C84.3514 156.245 84.5487 155.739 84.9434 155.152C85.338 154.555 85.8394 154.043 86.4474 153.616C87.066 153.179 87.6954 152.96 88.3354 152.96C88.7727 152.96 89.1887 153.088 89.5834 153.344C89.9887 153.6 90.314 153.92 90.5594 154.304C90.8047 154.688 90.9274 155.061 90.9274 155.424C90.9274 155.776 90.7887 156.064 90.5114 156.288C90.2447 156.501 89.9034 156.608 89.4874 156.608C89.2207 156.608 88.9487 156.555 88.6714 156.448C88.65 156.021 88.554 155.499 88.3834 154.88Z" fill="#242424"/>
</svg>
